<svg width="99" height="94" viewBox="0 0 99 94" fill="none" xmlns="http://www.w3.org/2000/svg">
<path d="M95.7839 15.2266L50.6857 0.193862C49.9142 -0.0633187 49.0801 -0.0633187 48.3086 0.193862L3.21041 15.2266C2.46208 15.4761 1.81122 15.9547 1.35003 16.5946C0.888833 17.2345 0.640689 18.0034 0.640747 18.7922V56.3741C0.640747 57.3708 1.0367 58.3267 1.74149 59.0315C2.44629 59.7363 3.4022 60.1322 4.39893 60.1322C5.39567 60.1322 6.35158 59.7363 7.05637 59.0315C7.76117 58.3267 8.15712 57.3708 8.15712 56.3741V24.0067L23.9368 29.2634C19.7443 36.0366 18.4112 44.1968 20.23 51.9521C22.0488 59.7074 26.871 66.424 33.6376 70.627C25.1817 73.9436 17.872 79.9426 12.526 88.1448C12.248 88.5581 12.0549 89.0224 11.9579 89.511C11.8609 89.9995 11.862 90.5024 11.9611 90.9905C12.0602 91.4786 12.2553 91.9421 12.5351 92.3542C12.8149 92.7662 13.1738 93.1185 13.591 93.3906C14.0082 93.6627 14.4753 93.8491 14.9651 93.9391C15.455 94.0291 15.9578 94.0208 16.4445 93.9148C16.9311 93.8087 17.3918 93.607 17.7998 93.3213C18.2078 93.0356 18.5549 92.6717 18.821 92.2507C25.9005 81.3895 37.0811 75.165 49.4972 75.165C61.9133 75.165 73.0939 81.3895 80.1734 92.2507C80.7246 93.0699 81.5761 93.6393 82.5437 93.8358C83.5114 94.0322 84.5175 93.8399 85.3446 93.3005C86.1716 92.7611 86.7532 91.9178 86.9634 90.9531C87.1737 89.9883 86.9959 88.9795 86.4683 88.1448C81.1223 79.9426 73.7844 73.9436 65.3567 70.627C72.1169 66.4241 76.9345 59.712 78.753 51.9623C80.5715 44.2127 79.2426 36.0582 75.0575 29.2869L95.7839 22.3813C96.5324 22.1319 97.1835 21.6534 97.6448 21.0135C98.1062 20.3735 98.3544 19.6046 98.3544 18.8157C98.3544 18.0268 98.1062 17.2579 97.6448 16.6179C97.1835 15.978 96.5324 15.4994 95.7839 15.2501V15.2266ZM72.0463 45.0995C72.0473 48.6644 71.2031 52.1787 69.5829 55.3542C67.9627 58.5296 65.6127 61.2757 62.7257 63.3671C59.8387 65.4584 56.4969 66.8355 52.9747 67.3853C49.4524 67.935 45.85 67.6419 42.463 66.5298C39.076 65.4177 36.0009 63.5185 33.4901 60.9878C30.9792 58.4572 29.1042 55.3673 28.0187 51.9716C26.9333 48.576 26.6684 44.9714 27.2458 41.4536C27.8232 37.9357 29.2265 34.6049 31.3404 31.7344L48.3086 37.3717C49.0801 37.6289 49.9142 37.6289 50.6857 37.3717L67.6539 31.7344C70.5088 35.6055 72.0482 40.2895 72.0463 45.0995ZM49.4972 29.8647L16.2842 18.7922L49.4972 7.71963L82.7101 18.7922L49.4972 29.8647Z" fill="white"/>
</svg>
