<svg width="33" height="34" viewBox="0 0 33 34" fill="none" xmlns="http://www.w3.org/2000/svg">
<path d="M13.8358 28.832C13.9959 29.3659 14.2165 29.9201 14.4973 30.4946C14.7781 31.0691 15.0649 31.5828 15.3574 32.0355H3.74457C2.86359 32.0355 2.10969 31.7221 1.48286 31.0953C0.856032 30.4685 0.542083 29.714 0.541016 28.832V3.20355C0.541016 2.32258 0.854964 1.56867 1.48286 0.941845C2.11076 0.315016 2.86466 0.00106785 3.74457 0H22.9659C23.8469 0 24.6013 0.313948 25.2292 0.941845C25.8571 1.56974 26.1705 2.32364 26.1694 3.20355V14.5762C25.6889 14.5228 25.155 14.4961 24.5677 14.4961C23.9803 14.4961 23.4464 14.5228 22.9659 14.5762V3.20355H14.957V14.416L10.9526 12.0133L6.94812 14.416V3.20355H3.74457V28.832H13.8358ZM24.5677 33.6373C22.3519 33.6373 20.4634 32.8562 18.9022 31.2939C17.341 29.7316 16.5598 27.8431 16.5588 25.6284C16.5577 23.4137 17.3388 21.5252 18.9022 19.9629C20.4655 18.4007 22.354 17.6195 24.5677 17.6195C26.7813 17.6195 28.6703 18.4007 30.2348 19.9629C31.7992 21.5252 32.5797 23.4137 32.5765 25.6284C32.5733 27.8431 31.7922 29.7322 30.2331 31.2955C28.6741 32.8588 26.7856 33.6394 24.5677 33.6373ZM22.5654 29.6329L28.9725 25.6284L22.5654 21.624V29.6329ZM13.8358 3.20355H3.74457H22.9659H13.3552H13.8358Z" fill="#0A3981"/>
</svg>
